<svg width="48" height="48" fill="none" xmlns="http://www.w3.org/2000/svg"><mask id="a" fill="#fff"><path d="M0 12C0 5.373 5.373 0 12 0h24c6.627 0 12 5.373 12 12v24c0 6.627-5.373 12-12 12H12C5.373 48 0 42.627 0 36V12z"/></mask><path d="M0 12C0 5.373 5.373 0 12 0h24c6.627 0 12 5.373 12 12v24c0 6.627-5.373 12-12 12H12C5.373 48 0 42.627 0 36V12z" fill="#F2F3F7"/><path d="M12 2h24v-4H12v4zm34 10v24h4V12h-4zM36 46H12v4h24v-4zM2 36V12h-4v24h4zm10 10C6.477 46 2 41.523 2 36h-4c0 7.732 6.268 14 14 14v-4zm34-10c0 5.523-4.477 10-10 10v4c7.732 0 14-6.268 14-14h-4zM36 2c5.523 0 10 4.477 10 10h4c0-7.732-6.268-14-14-14v4zM12-2C4.268-2-2 4.268-2 12h4C2 6.477 6.477 2 12 2v-4z" fill="url(#paint0_linear_1450_86923)" mask="url(#a)"/><path d="M5 13c.333-2.5 2.5-7.6 8.5-8" stroke="#fff" stroke-width="3" stroke-linecap="round"/><defs><linearGradient id="paint0_linear_1450_86923" x1="28.2" y1="74.625" x2="28.2" y2="-27" gradientUnits="userSpaceOnUse"><stop offset=".039" stop-color="#B9C4D2"/><stop offset=".451" stop-color="#EEF5FD" stop-opacity="0"/><stop offset="1" stop-color="#fff"/></linearGradient></defs></svg>