<svg width="90" height="957" fill="none" xmlns="http://www.w3.org/2000/svg"><mask id="a" fill="#fff"><path fill-rule="evenodd" clip-rule="evenodd" d="M0 16C0 7.163 7.163 0 16 0h58c8.837 0 16 7.163 16 16v72.463a2.644 2.644 0 01-2.644 2.644c-1.04 0-1.943-.652-2.646-1.417a5.626 5.626 0 00-4.154-1.805c-3.069 0-5.556 2.404-5.556 5.37 0 2.967 2.487 5.371 5.556 5.371a5.626 5.626 0 004.154-1.805c.703-.765 1.607-1.417 2.646-1.417A2.644 2.644 0 0190 98.048v758.478a2.647 2.647 0 01-2.647 2.647c-1.038 0-1.94-.65-2.646-1.411a5.646 5.646 0 00-4.151-1.788c-3.069 0-5.556 2.387-5.556 5.332s2.487 5.333 5.556 5.333a5.64 5.64 0 004.15-1.789c.706-.761 1.609-1.411 2.647-1.411A2.648 2.648 0 0190 866.087V941c0 8.837-7.163 16-16 16H16c-8.837 0-16-7.163-16-16v-74.914a2.648 2.648 0 012.647-2.648c1.038 0 1.94.65 2.646 1.411a5.643 5.643 0 004.151 1.789c3.069 0 5.556-2.388 5.556-5.333 0-2.945-2.487-5.332-5.556-5.332-1.65 0-3.133.691-4.15 1.788-.706.761-1.609 1.411-2.647 1.411A2.647 2.647 0 010 856.525V98.048a2.644 2.644 0 012.644-2.645c1.04 0 1.943.652 2.646 1.417a5.626 5.626 0 004.154 1.806c3.069 0 5.556-2.405 5.556-5.371 0-2.966-2.487-5.371-5.556-5.371a5.626 5.626 0 00-4.154 1.805c-.703.766-1.607 1.418-2.646 1.418A2.644 2.644 0 010 88.462V16z"/></mask><path fill-rule="evenodd" clip-rule="evenodd" d="M0 16C0 7.163 7.163 0 16 0h58c8.837 0 16 7.163 16 16v72.463a2.644 2.644 0 01-2.644 2.644c-1.04 0-1.943-.652-2.646-1.417a5.626 5.626 0 00-4.154-1.805c-3.069 0-5.556 2.404-5.556 5.37 0 2.967 2.487 5.371 5.556 5.371a5.626 5.626 0 004.154-1.805c.703-.765 1.607-1.417 2.646-1.417A2.644 2.644 0 0190 98.048v758.478a2.647 2.647 0 01-2.647 2.647c-1.038 0-1.94-.65-2.646-1.411a5.646 5.646 0 00-4.151-1.788c-3.069 0-5.556 2.387-5.556 5.332s2.487 5.333 5.556 5.333a5.64 5.64 0 004.15-1.789c.706-.761 1.609-1.411 2.647-1.411A2.648 2.648 0 0190 866.087V941c0 8.837-7.163 16-16 16H16c-8.837 0-16-7.163-16-16v-74.914a2.648 2.648 0 012.647-2.648c1.038 0 1.94.65 2.646 1.411a5.643 5.643 0 004.151 1.789c3.069 0 5.556-2.388 5.556-5.333 0-2.945-2.487-5.332-5.556-5.332-1.65 0-3.133.691-4.15 1.788-.706.761-1.609 1.411-2.647 1.411A2.647 2.647 0 010 856.525V98.048a2.644 2.644 0 012.644-2.645c1.04 0 1.943.652 2.646 1.417a5.626 5.626 0 004.154 1.806c3.069 0 5.556-2.405 5.556-5.371 0-2.966-2.487-5.371-5.556-5.371a5.626 5.626 0 00-4.154 1.805c-.703.766-1.607 1.418-2.646 1.418A2.644 2.644 0 010 88.462V16z" fill="#F2F3F7"/><path d="M5.29 96.82l-1.473 1.354L5.29 96.82zm.003 768.029l-1.466 1.36 1.466-1.36zm79.414-7.087l1.466-1.359-1.466 1.359zM5.29 89.69l-1.473-1.354L5.29 89.69zm.003 768.071l1.467 1.36-1.467-1.36zm79.414 7.089l-1.467-1.36 1.467 1.36zm.003-775.16l-1.472 1.353 1.472-1.353zm0 7.13l1.473 1.354-1.473-1.353zM16-2C6.059-2-2 6.059-2 16h4C2 8.268 8.268 2 16 2v-4zm58 0H16v4h58v-4zm18 18c0-9.941-8.059-18-18-18v4c7.732 0 14 6.268 14 14h4zm0 72.463V16h-4v72.463h4zm-11.444 1.422c1.081 0 2.035.454 2.682 1.158l2.945-2.706a7.626 7.626 0 00-5.627-2.453v4zM77 93.255c0-1.798 1.528-3.37 3.556-3.37v-4c-4.109 0-7.556 3.236-7.556 7.37h4zm3.556 3.371c-2.028 0-3.556-1.572-3.556-3.37h-4c0 4.133 3.447 7.37 7.556 7.37v-4zm2.682-1.158a3.626 3.626 0 01-2.682 1.158v4c2.224 0 4.239-.94 5.627-2.452l-2.945-2.706zM92 856.526V98.048h-4v758.478h4zm-11.444 1.448c1.085 0 2.039.452 2.684 1.148l2.933-2.719a7.645 7.645 0 00-5.617-2.429v4zM77 861.306c0-1.764 1.514-3.332 3.556-3.332v-4c-4.095 0-7.556 3.206-7.556 7.332h4zm3.556 3.333c-2.042 0-3.556-1.569-3.556-3.333h-4c0 4.126 3.46 7.333 7.556 7.333v-4zm2.684-1.149a3.645 3.645 0 01-2.684 1.149v4c2.216 0 4.227-.93 5.617-2.429l-2.933-2.72zM92 941v-74.913h-4V941h4zm-18 18c9.941 0 18-8.059 18-18h-4c0 7.732-6.268 14-14 14v4zm-58 0h58v-4H16v4zm-18-18c0 9.941 8.059 18 18 18v-4c-7.732 0-14-6.268-14-14h-4zm0-74.914V941h4v-74.914h-4zm11.444-1.448a3.645 3.645 0 01-2.684-1.149l-2.933 2.72a7.645 7.645 0 005.617 2.429v-4zM13 861.305c0 1.764-1.514 3.333-3.556 3.333v4c4.095 0 7.556-3.207 7.556-7.333h-4zm-3.556-3.332c2.042 0 3.556 1.568 3.556 3.332h4c0-4.126-3.46-7.332-7.556-7.332v4zm-2.684 1.148a3.644 3.644 0 012.684-1.148v-4a7.644 7.644 0 00-5.617 2.428l2.933 2.72zM-2 98.048v758.477h4V98.048h-4zm11.444-1.422a3.627 3.627 0 01-2.682-1.159l-2.945 2.707a7.626 7.626 0 005.627 2.452v-4zM13 93.255c0 1.799-1.528 3.37-3.556 3.37v4.001c4.109 0 7.556-3.237 7.556-7.371h-4zm-3.556-3.371c2.028 0 3.556 1.572 3.556 3.371h4c0-4.134-3.447-7.371-7.556-7.371v4zm-2.682 1.159a3.627 3.627 0 012.682-1.159v-4a7.626 7.626 0 00-5.627 2.452l2.945 2.707zM-2 16v72.462h4V16h-4zm4.644 81.403c.191 0 .595.142 1.173.77l2.945-2.706c-.828-.901-2.23-2.064-4.118-2.064v4zM2 98.048c0-.356.288-.645.644-.645v-4A4.644 4.644 0 00-2 98.048h4zm85.353 767.391c.357 0 .647.29.647.648h4a4.648 4.648 0 00-4.647-4.648v4zm-84.706-.001c.192 0 .597.142 1.18.771l2.933-2.72c-.828-.893-2.23-2.051-4.113-2.051v4zM2.644 89.107A.644.644 0 012 88.462h-4a4.644 4.644 0 004.644 4.645v-4zm84.709 768.066c-.192 0-.596-.142-1.18-.77l-2.933 2.719c.828.893 2.23 2.051 4.113 2.051v-4zM2 866.086c0-.358.29-.648.647-.648v-4A4.648 4.648 0 00-2 866.086h4zm1.817-777.75c-.578.63-.982.77-1.173.77v4c1.888 0 3.29-1.162 4.118-2.063l-2.945-2.707zM88 856.526c0 .357-.29.647-.647.647v4A4.647 4.647 0 0092 856.526h-4zm-.644-759.122c.356 0 .644.288.644.644h4a4.644 4.644 0 00-4.644-4.644v4zM88 88.463a.644.644 0 01-.644.644v4A4.644 4.644 0 0092 88.463h-4zM3.827 856.4c-.583.629-.988.771-1.18.771v4c1.884 0 3.285-1.158 4.113-2.051l-2.933-2.72zm82.346 9.809c.584-.629.988-.771 1.18-.771v-4c-1.884 0-3.285 1.159-4.113 2.051l2.933 2.72zm-83.526-9.038a.647.647 0 01-.647-.647h-4a4.648 4.648 0 004.647 4.647v-4zM87.356 89.107c-.191 0-.595-.141-1.173-.77l-2.945 2.706c.828.901 2.23 2.064 4.118 2.064v-4zm-1.173 9.067c.578-.629.982-.77 1.173-.77v-4c-1.888 0-3.29 1.162-4.118 2.064l2.945 2.706z" fill="url(#paint0_linear_2324_37278)" mask="url(#a)"/><defs><linearGradient id="paint0_linear_2324_37278" x1="52.875" y1="1487.84" x2="52.873" y2="-538.313" gradientUnits="userSpaceOnUse"><stop offset=".039" stop-color="#B9C4D2"/><stop offset=".451" stop-color="#EEF5FD" stop-opacity="0"/><stop offset="1" stop-color="#fff"/></linearGradient></defs></svg>