<svg width="190" height="58" fill="none" xmlns="http://www.w3.org/2000/svg"><g clip-path="url(#clip0_1583_9269)"><path d="M178 57H22.145c-8.734 0-13.984-9.69-9.215-17.007l22.16-34A11 11 0 0144.307 1H178c6.075 0 11 4.925 11 11v34c0 6.075-4.925 11-11 11z" fill="#B3C3FE" stroke="url(#paint0_linear_1583_9269)" stroke-width="2"/><path transform="matrix(.64863 .7611 -.82986 .55797 171.018 -18)" fill="url(#paint1_linear_1583_9269)" fill-opacity=".4" d="M0 0h46.042v119.318H0z"/><path transform="matrix(.64863 .7611 -.82986 .55797 145.018 -35)" fill="url(#paint2_linear_1583_9269)" fill-opacity=".4" d="M0 0h20.073v119.318H0z"/></g><defs><linearGradient id="paint0_linear_1583_9269" x1="67" y1="-41.5" x2="159" y2="90.5" gradientUnits="userSpaceOnUse"><stop stop-color="#fff"/><stop offset=".385" stop-color="#B3C3FE" stop-opacity="0"/><stop offset=".677" stop-color="#B3C3FE" stop-opacity="0"/><stop offset=".937" stop-color="#8092D6"/></linearGradient><linearGradient id="paint1_linear_1583_9269" x1="-82.792" y1="19.916" x2="-29.92" y2="150.983" gradientUnits="userSpaceOnUse"><stop stop-color="#DAE2FF"/><stop offset=".929" stop-color="#fff" stop-opacity="0"/></linearGradient><linearGradient id="paint2_linear_1583_9269" x1="-36.095" y1="19.916" x2="39.874" y2="102.019" gradientUnits="userSpaceOnUse"><stop stop-color="#DAE2FF"/><stop offset=".929" stop-color="#fff" stop-opacity="0"/></linearGradient><clipPath id="clip0_1583_9269"><path d="M0 0h178c6.627 0 12 5.373 12 12v34c0 6.627-5.373 12-12 12H0V0z" fill="#fff"/></clipPath></defs></svg>