<svg width="185" height="64" fill="none" xmlns="http://www.w3.org/2000/svg"><g filter="url(#filter0_d_1747_39904)"><path d="M0 12C0 5.373 5.373 0 12 0h150.799c9.539 0 15.265 10.593 10.039 18.574l-23.572 36A12.002 12.002 0 01139.226 60H12C5.373 60 0 54.627 0 48V12z" fill="#2B69FF"/><path d="M1 12C1 5.925 5.925 1 12 1h150.799c8.744 0 13.993 9.71 9.202 17.026l-23.572 36A11.002 11.002 0 01139.226 59H12C5.925 59 1 54.075 1 48V12z" stroke="url(#paint0_linear_1747_39904)" stroke-width="2"/></g><defs><linearGradient id="paint0_linear_1747_39904" x1="108.687" y1="151.8" x2="108.687" y2="-63.6" gradientUnits="userSpaceOnUse"><stop offset=".039" stop-color="#53557A"/><stop offset=".451" stop-color="#8891DD" stop-opacity="0"/><stop offset=".772" stop-color="#B5B8F7"/></linearGradient><filter id="filter0_d_1747_39904" x="0" y="0" width="174.82" height="64" filterUnits="userSpaceOnUse" color-interpolation-filters="sRGB"><feFlood flood-opacity="0" result="BackgroundImageFix"/><feColorMatrix in="SourceAlpha" values="0 0 0 0 0 0 0 0 0 0 0 0 0 0 0 0 0 0 127 0" result="hardAlpha"/><feOffset dy="4"/><feComposite in2="hardAlpha" operator="out"/><feColorMatrix values="0 0 0 0 0.130786 0 0 0 0 0.325525 0 0 0 0 0.796667 0 0 0 1 0"/><feBlend in2="BackgroundImageFix" result="effect1_dropShadow_1747_39904"/><feBlend in="SourceGraphic" in2="effect1_dropShadow_1747_39904" result="shape"/></filter></defs></svg>