<svg width="185" height="58" fill="none" xmlns="http://www.w3.org/2000/svg"><g clip-path="url(#clip0_1583_9268)"><path d="M12 1h150.378c8.822 0 14.055 9.865 9.107 17.169l-23.031 34A10.999 10.999 0 01139.347 57H12C5.925 57 1 52.075 1 46V12C1 5.925 5.925 1 12 1z" fill="#ABEEEE" stroke="url(#paint0_linear_1583_9268)" stroke-width="2"/><path transform="matrix(.78306 .62194 -.70687 .70734 153.631 -59)" fill="url(#paint1_linear_1583_9268)" fill-opacity=".4" d="M0 0h52.165v159.338H0z"/><path transform="matrix(.78306 .62194 -.70687 .70734 108.631 -63)" fill="url(#paint2_linear_1583_9268)" fill-opacity=".4" d="M0 0h19.923v159.338H0z"/></g><defs><linearGradient id="paint0_linear_1583_9268" x1="34.5" y1="95" x2="131.424" y2="-47.925" gradientUnits="userSpaceOnUse"><stop stop-color="#fff"/><stop offset="0" stop-color="#969999"/><stop offset=".385" stop-color="#B3FEFE" stop-opacity="0"/><stop offset=".677" stop-color="#B3FEFE" stop-opacity="0"/><stop offset=".937" stop-color="#fff"/></linearGradient><linearGradient id="paint1_linear_1583_9268" x1="-28.988" y1="53.034" x2="-32.967" y2="169.65" gradientUnits="userSpaceOnUse"><stop stop-color="#fff"/><stop offset=".655" stop-color="#fff" stop-opacity="0"/></linearGradient><linearGradient id="paint2_linear_1583_9268" x1="25.892" y1="40.335" x2="-43.716" y2="89.632" gradientUnits="userSpaceOnUse"><stop stop-color="#fff"/><stop offset=".929" stop-color="#fff" stop-opacity="0"/></linearGradient><clipPath id="clip0_1583_9268"><path d="M0 12C0 5.373 5.373 0 12 0h161c6.627 0 12 5.373 12 12v46H12C5.373 58 0 52.627 0 46V12z" fill="#fff"/></clipPath></defs></svg>