<svg width="190" height="60" fill="none" xmlns="http://www.w3.org/2000/svg"><g clip-path="url(#clip0_1766_25159)"><path d="M189 48c0 6.075-4.925 11-11 11H21.744c-8.658 0-13.922-9.539-9.307-16.864l22.682-36A11 11 0 0144.426 1H178c6.075 0 11 4.925 11 11v36z" fill="#B3C3FE" stroke="url(#paint0_linear_1766_25159)" stroke-width="2"/><path transform="matrix(.63584 .77182 -.82094 .57101 171.018 -18.621)" fill="url(#paint1_linear_1766_25159)" fill-opacity=".4" d="M0 0h46.968v120.614H0z"/><path transform="matrix(.63584 .77182 -.82094 .57101 145.018 -36.207)" fill="url(#paint2_linear_1766_25159)" fill-opacity=".4" d="M0 0h20.477v120.614H0z"/></g><defs><linearGradient id="paint0_linear_1766_25159" x1="67" y1="-42.931" x2="163.247" y2="90.559" gradientUnits="userSpaceOnUse"><stop stop-color="#fff"/><stop offset=".385" stop-color="#B3C3FE" stop-opacity="0"/><stop offset=".677" stop-color="#B3C3FE" stop-opacity="0"/><stop offset=".937" stop-color="#8092D6"/></linearGradient><linearGradient id="paint1_linear_1766_25159" x1="-84.458" y1="20.132" x2="-31.362" y2="152.959" gradientUnits="userSpaceOnUse"><stop stop-color="#DAE2FF"/><stop offset=".929" stop-color="#fff" stop-opacity="0"/></linearGradient><linearGradient id="paint2_linear_1766_25159" x1="-36.821" y1="20.132" x2="39.916" y2="103.824" gradientUnits="userSpaceOnUse"><stop stop-color="#DAE2FF"/><stop offset=".929" stop-color="#fff" stop-opacity="0"/></linearGradient><clipPath id="clip0_1766_25159"><path d="M0 0h178c6.627 0 12 5.373 12 12v36c0 6.627-5.373 12-12 12H0V0z" fill="#fff"/></clipPath></defs></svg>