<svg width="185" height="64" fill="none" xmlns="http://www.w3.org/2000/svg"><g filter="url(#filter0_d_1780_31302)"><path d="M185 48c0 6.627-5.373 12-12 12H21.44c-9.38 0-15.134-10.28-10.229-18.275l22.086-36A12 12 0 0143.525 0H173c6.627 0 12 5.373 12 12v36z" fill="#2B69FF"/><path d="M184 48c0 6.075-4.925 11-11 11H21.44c-8.599 0-13.873-9.423-9.376-16.752l22.085-36A11 11 0 0143.525 1H173c6.075 0 11 4.925 11 11v36z" stroke="url(#paint0_linear_1780_31302)" stroke-width="2"/></g><defs><linearGradient id="paint0_linear_1780_31302" x1="76.313" y1="-91.8" x2="76.313" y2="123.6" gradientUnits="userSpaceOnUse"><stop offset=".039" stop-color="#53557A"/><stop offset=".451" stop-color="#8891DD" stop-opacity="0"/><stop offset=".772" stop-color="#B5B8F7"/></linearGradient><filter id="filter0_d_1780_31302" x="9.422" y="0" width="175.578" height="64" filterUnits="userSpaceOnUse" color-interpolation-filters="sRGB"><feFlood flood-opacity="0" result="BackgroundImageFix"/><feColorMatrix in="SourceAlpha" values="0 0 0 0 0 0 0 0 0 0 0 0 0 0 0 0 0 0 127 0" result="hardAlpha"/><feOffset dy="4"/><feComposite in2="hardAlpha" operator="out"/><feColorMatrix values="0 0 0 0 0.130786 0 0 0 0 0.325525 0 0 0 0 0.796667 0 0 0 1 0"/><feBlend in2="BackgroundImageFix" result="effect1_dropShadow_1780_31302"/><feBlend in="SourceGraphic" in2="effect1_dropShadow_1780_31302" result="shape"/></filter></defs></svg>