<svg width="185" height="64" fill="none" xmlns="http://www.w3.org/2000/svg"><g filter="url(#filter0_d_1747_39899)"><path d="M0 12C0 5.373 5.373 0 12 0h150.799c9.539 0 15.265 10.593 10.039 18.574l-23.572 36A12.002 12.002 0 01139.226 60H12C5.373 60 0 54.627 0 48V12z" fill="#DEE5EE"/><path d="M1 12C1 5.925 5.925 1 12 1h150.799c8.744 0 13.993 9.71 9.202 17.026l-23.572 36A11.002 11.002 0 01139.226 59H12C5.925 59 1 54.075 1 48V12z" stroke="url(#paint0_linear_1747_39899)" stroke-width="2"/></g><defs><linearGradient id="paint0_linear_1747_39899" x1="185" y1="88.421" x2="176.783" y2="-67.196" gradientUnits="userSpaceOnUse"><stop stop-color="#D6E0E6"/><stop offset=".446" stop-color="#D6E1E8" stop-opacity="0"/><stop offset=".772" stop-color="#F4FBFF"/></linearGradient><filter id="filter0_d_1747_39899" x="0" y="0" width="174.82" height="64" filterUnits="userSpaceOnUse" color-interpolation-filters="sRGB"><feFlood flood-opacity="0" result="BackgroundImageFix"/><feColorMatrix in="SourceAlpha" values="0 0 0 0 0 0 0 0 0 0 0 0 0 0 0 0 0 0 127 0" result="hardAlpha"/><feOffset dy="4"/><feComposite in2="hardAlpha" operator="out"/><feColorMatrix values="0 0 0 0 0.641585 0 0 0 0 0.752635 0 0 0 0 0.821667 0 0 0 1 0"/><feBlend in2="BackgroundImageFix" result="effect1_dropShadow_1747_39899"/><feBlend in="SourceGraphic" in2="effect1_dropShadow_1747_39899" result="shape"/></filter></defs></svg>