<svg width="185" height="58" viewBox="0 0 185 58" fill="none" xmlns="http://www.w3.org/2000/svg">
<g clip-path="url(#clip0_1583_9268)">
<path d="M12 1H162.378C171.2 1 176.433 10.8646 171.485 18.169L148.454 52.169C146.408 55.1903 142.996 57 139.347 57H12C5.92487 57 1 52.0751 1 46V12C1 5.92487 5.92487 1 12 1Z" fill="#ABEEEE" stroke="url(#paint0_linear_1583_9268)" stroke-width="2"/>
<rect width="52.1652" height="159.338" transform="matrix(0.783061 0.621945 -0.70687 0.707343 153.631 -59)" fill="url(#paint1_linear_1583_9268)" fill-opacity="0.4"/>
<rect width="19.9231" height="159.338" transform="matrix(0.783061 0.621945 -0.70687 0.707343 108.631 -63)" fill="url(#paint2_linear_1583_9268)" fill-opacity="0.4"/>
</g>
<defs>
<linearGradient id="paint0_linear_1583_9268" x1="34.5" y1="95" x2="131.424" y2="-47.9253" gradientUnits="userSpaceOnUse">
<stop stop-color="white"/>
<stop offset="0.0001" stop-color="#969999"/>
<stop offset="0.385417" stop-color="#B3FEFE" stop-opacity="0"/>
<stop offset="0.677083" stop-color="#B3FEFE" stop-opacity="0"/>
<stop offset="0.936883" stop-color="white"/>
</linearGradient>
<linearGradient id="paint1_linear_1583_9268" x1="-28.988" y1="53.0339" x2="-32.9667" y2="169.65" gradientUnits="userSpaceOnUse">
<stop stop-color="white"/>
<stop offset="0.65544" stop-color="white" stop-opacity="0"/>
</linearGradient>
<linearGradient id="paint2_linear_1583_9268" x1="25.8917" y1="40.335" x2="-43.716" y2="89.6318" gradientUnits="userSpaceOnUse">
<stop stop-color="white"/>
<stop offset="0.928671" stop-color="white" stop-opacity="0"/>
</linearGradient>
<clipPath id="clip0_1583_9268">
<path d="M0 12C0 5.37258 5.37258 0 12 0H173C179.627 0 185 5.37258 185 12V58H12C5.37258 58 0 52.6274 0 46V12Z" fill="white"/>
</clipPath>
</defs>
</svg>
