<svg width="185" height="66" fill="none" xmlns="http://www.w3.org/2000/svg"><g filter="url(#filter0_d_1766_28397)"><path d="M185 48c0 6.627-5.373 12-12 12H21.44c-9.38 0-15.134-10.28-10.229-18.275l22.086-36A12 12 0 0143.525 0H173c6.627 0 12 5.373 12 12v36z" fill="#DEE5EE"/><path d="M184 48c0 6.075-4.925 11-11 11H21.44c-8.599 0-13.873-9.423-9.376-16.752l22.085-36A11 11 0 0143.525 1H173c6.075 0 11 4.925 11 11v36z" stroke="url(#paint0_linear_1766_28397)" stroke-width="2"/></g><defs><linearGradient id="paint0_linear_1766_28397" x1="0" y1="-28.421" x2="8.217" y2="127.196" gradientUnits="userSpaceOnUse"><stop stop-color="#D6E0E6"/><stop offset=".446" stop-color="#D6E1E8" stop-opacity="0"/><stop offset=".772" stop-color="#F4FBFF"/></linearGradient><filter id="filter0_d_1766_28397" x="9.422" y="0" width="175.578" height="66" filterUnits="userSpaceOnUse" color-interpolation-filters="sRGB"><feFlood flood-opacity="0" result="BackgroundImageFix"/><feColorMatrix in="SourceAlpha" values="0 0 0 0 0 0 0 0 0 0 0 0 0 0 0 0 0 0 127 0" result="hardAlpha"/><feOffset dy="6"/><feComposite in2="hardAlpha" operator="out"/><feColorMatrix values="0 0 0 0 0.641585 0 0 0 0 0.752635 0 0 0 0 0.821667 0 0 0 1 0"/><feBlend in2="BackgroundImageFix" result="effect1_dropShadow_1766_28397"/><feBlend in="SourceGraphic" in2="effect1_dropShadow_1766_28397" result="shape"/></filter></defs></svg>