<svg width="185" height="60" fill="none" xmlns="http://www.w3.org/2000/svg"><g clip-path="url(#clip0_1766_25155)"><path d="M1 12C1 5.925 5.925 1 12 1h150.799c8.744 0 13.993 9.71 9.202 17.026l-23.572 36A11.002 11.002 0 01139.226 59H12C5.925 59 1 54.075 1 48V12z" fill="#ABEEEE" stroke="url(#paint0_linear_1766_25155)" stroke-width="2"/><path transform="matrix(.77265 .63484 -.69478 .71922 153.631 -61.035)" fill="url(#paint1_linear_1766_25155)" fill-opacity=".4" d="M0 0h52.868v162.11H0z"/><path transform="matrix(.77265 .63484 -.69478 .71922 108.631 -65.172)" fill="url(#paint2_linear_1766_25155)" fill-opacity=".4" d="M0 0h20.192v162.11H0z"/></g><defs><linearGradient id="paint0_linear_1766_25155" x1="34.5" y1="98.276" x2="135.981" y2="-46.381" gradientUnits="userSpaceOnUse"><stop stop-color="#fff"/><stop offset="0" stop-color="#969999"/><stop offset=".385" stop-color="#B3FEFE" stop-opacity="0"/><stop offset=".677" stop-color="#B3FEFE" stop-opacity="0"/><stop offset=".937" stop-color="#fff"/></linearGradient><linearGradient id="paint1_linear_1766_25155" x1="-29.379" y1="53.957" x2="-33.442" y2="172.6" gradientUnits="userSpaceOnUse"><stop stop-color="#fff"/><stop offset=".655" stop-color="#fff" stop-opacity="0"/></linearGradient><linearGradient id="paint2_linear_1766_25155" x1="26.241" y1="41.037" x2="-44.487" y2="90.934" gradientUnits="userSpaceOnUse"><stop stop-color="#fff"/><stop offset=".929" stop-color="#fff" stop-opacity="0"/></linearGradient><clipPath id="clip0_1766_25155"><path d="M0 12C0 5.373 5.373 0 12 0h161c6.627 0 12 5.373 12 12v48H12C5.373 60 0 54.627 0 48V12z" fill="#fff"/></clipPath></defs></svg>