<svg width="40" height="41" fill="none" xmlns="http://www.w3.org/2000/svg"><g filter="url(#filter0_d_1450_87061)"><mask id="a" fill="#fff"><path d="M0 8a8 8 0 018-8h22a8 8 0 018 8v22a8 8 0 01-8 8H8a8 8 0 01-8-8V8z"/></mask><path d="M0 8a8 8 0 018-8h22a8 8 0 018 8v22a8 8 0 01-8 8H8a8 8 0 01-8-8V8z" fill="#DEE5EE"/><path d="M8 2h22v-4H8v4zm28 6v22h4V8h-4zm-6 28H8v4h22v-4zM2 30V8h-4v22h4zm6 6a6 6 0 01-6-6h-4c0 5.523 4.477 10 10 10v-4zm28-6a6 6 0 01-6 6v4c5.523 0 10-4.477 10-10h-4zM30 2a6 6 0 016 6h4c0-5.523-4.477-10-10-10v4zM8-2C2.477-2-2 2.477-2 8h4a6 6 0 016-6v-4z" fill="url(#paint0_linear_1450_87061)" mask="url(#a)"/></g><path d="M5.617 12.075c0-3.62 0-5.985 6.264-5.985" stroke="#E7EEF7" stroke-width="3" stroke-linecap="round"/><defs><linearGradient id="paint0_linear_1450_87061" x1="38" y1="56" x2="22.325" y2="-40.28" gradientUnits="userSpaceOnUse"><stop stop-color="#D6E0E6"/><stop offset=".446" stop-color="#D6E1E8" stop-opacity="0"/><stop offset=".772" stop-color="#F4FBFF"/></linearGradient><filter id="filter0_d_1450_87061" x="0" y="0" width="40" height="41" filterUnits="userSpaceOnUse" color-interpolation-filters="sRGB"><feFlood flood-opacity="0" result="BackgroundImageFix"/><feColorMatrix in="SourceAlpha" values="0 0 0 0 0 0 0 0 0 0 0 0 0 0 0 0 0 0 127 0" result="hardAlpha"/><feOffset dx="2" dy="3"/><feComposite in2="hardAlpha" operator="out"/><feColorMatrix values="0 0 0 0 0.641585 0 0 0 0 0.752635 0 0 0 0 0.821667 0 0 0 1 0"/><feBlend in2="BackgroundImageFix" result="effect1_dropShadow_1450_87061"/><feBlend in="SourceGraphic" in2="effect1_dropShadow_1450_87061" result="shape"/></filter></defs></svg>