<svg width="48" height="52" fill="none" xmlns="http://www.w3.org/2000/svg"><g filter="url(#filter0_d_1450_86906)"><mask id="a" fill="#fff"><path d="M0 8a8 8 0 018-8h32a8 8 0 018 8v32a8 8 0 01-8 8H8a8 8 0 01-8-8V8z"/></mask><path d="M0 8a8 8 0 018-8h32a8 8 0 018 8v32a8 8 0 01-8 8H8a8 8 0 01-8-8V8z" fill="#2B69FF"/><path d="M8 2h32v-4H8v4zm38 6v32h4V8h-4zm-6 38H8v4h32v-4zM2 40V8h-4v32h4zm6 6a6 6 0 01-6-6h-4c0 5.523 4.477 10 10 10v-4zm38-6a6 6 0 01-6 6v4c5.523 0 10-4.477 10-10h-4zM40 2a6 6 0 016 6h4c0-5.523-4.477-10-10-10v4zM8-2C2.477-2-2 2.477-2 8h4a6 6 0 016-6v-4z" fill="url(#paint0_linear_1450_86906)" mask="url(#a)"/></g><rect x="14" y="17.75" width="15.833" height="2.5" rx="1.25" fill="#fff"/><rect x="14" y="22.75" width="20" height="2.5" rx="1.25" fill="#fff"/><rect x="14" y="27.75" width="12.5" height="2.5" rx="1.25" fill="#fff"/><path d="M6 14c0-6 2-8 8.5-8" stroke="#4E82FF" stroke-width="3" stroke-linecap="round"/><defs><linearGradient id="paint0_linear_1450_86906" x1="28.2" y1="121.44" x2="28.2" y2="-50.88" gradientUnits="userSpaceOnUse"><stop offset=".039" stop-color="#53557A"/><stop offset=".451" stop-color="#8891DD" stop-opacity="0"/><stop offset=".772" stop-color="#B5B8F7"/></linearGradient></defs></svg>