<svg width="26" height="26" fill="none" xmlns="http://www.w3.org/2000/svg"><path d="M18.2 2.168h-2.817c-3.466 0-5.633 2.167-5.633 5.633v4.388h6.77c.445 0 .813.368.813.812a.818.818 0 01-.812.813H9.75V18.2c0 3.467 2.167 5.634 5.633 5.634h2.806c3.467 0 5.634-2.167 5.634-5.634V7.8c.01-3.466-2.156-5.633-5.623-5.633z" fill="#666A72"/><path d="M4.942 12.189l2.243-2.243a.804.804 0 00.238-.574.786.786 0 00-.238-.574.817.817 0 00-1.148 0l-3.63 3.63a.817.817 0 000 1.148l3.63 3.629a.817.817 0 001.148 0 .817.817 0 000-1.148l-2.242-2.243h4.81v-1.625h-4.81z" fill="#666A72"/></svg>