<svg width="40" height="40" fill="none" xmlns="http://www.w3.org/2000/svg"><path d="M24.668 33.81a9.324 9.324 0 002.464-3.27l-2.446-1.63h-4.92l-2.446 1.63a9.324 9.324 0 002.464 3.27l-.019.022v5.387h4.921v-5.386l-.018-.023z" fill="#FFC2A6"/><path d="M20.515 33.81a9.325 9.325 0 002.464-3.27l-2.445-1.63h-4.92l-2.446 1.63a9.324 9.324 0 002.464 3.27l-.019.022v5.387h4.921v-5.386l-.018-.023z" fill="#FFC2A6"/><path d="M36.09 16.42h3.125a8.932 8.932 0 00-6.02-7.21l-1.791-.597 3.125-.78 1.562-.78-1.029-.82a10.517 10.517 0 00-6.57-2.303h-.215c1.13-.561 1.994-1.262 3.125-1.828C29.222.357 24.09-.16 20 3.928 15.886-.185 10.635.4 8.593 2.03c1.13.561 1.994 1.332 3.124 1.898h-.214c-2.388 0-4.705.812-6.57 2.303l-1.028.82 3.125.78 1.563.78-1.791.596a8.937 8.937 0 00-6.02 7.212h3.124l-1.142 1.142a6.763 6.763 0 00-1.982 4.783v.321h3.125l-.41.548a6.76 6.76 0 00-1.151 5.701l1.562-.78 1.562-.78a6.758 6.758 0 001.151 5.7l.41.548 3.819-3.295a1.326 1.326 0 001.836.36l2.626-1.75a1.67 1.67 0 001.752 1.67c.303-.015.595-.111.847-.279l1.221-.813a1.561 1.561 0 011.733 0l1.221.813a1.674 1.674 0 002.6-1.39l2.625 1.75a1.327 1.327 0 001.836-.361l3.815 3.29.41-.547a6.76 6.76 0 001.152-5.701l1.562.78 1.563.78a6.758 6.758 0 00-1.151-5.7l-.41-.549h3.123v-.321a6.763 6.763 0 00-1.981-4.782l-1.14-1.136z" fill="#fff"/><path d="M16.618 17.984a3.385 3.385 0 000 6.247 3.385 3.385 0 000-6.247zm9.371-.001a3.388 3.388 0 00-4.684 2.953 3.383 3.383 0 004.363 3.41 3.386 3.386 0 001.836-5.116 3.385 3.385 0 00-1.515-1.247z" fill="#D4E9FF"/><path d="M30.11 22.573a5.196 5.196 0 01-.526-1.934 5.922 5.922 0 01.035-1.239c.06-.45.083-.906.068-1.36a8.16 8.16 0 00-6.893-7.767 8.168 8.168 0 00-6.892 7.767 3.127 3.127 0 012.528 3.304 3.12 3.12 0 01-.566 1.57l.27 1.346a1.905 1.905 0 003.74 0l.269-1.347a3.122 3.122 0 012.056-4.889 3.126 3.126 0 013.48 4.004 3.124 3.124 0 01-3.236 2.194v.025a5.33 5.33 0 014.074 2.41l1.114-1.114c.347-.347.587-.786.692-1.264 0-.015.007-.031.01-.046a2.562 2.562 0 00-.224-1.66z" fill="#FFC2A6"/><path d="M21.983 15.637H18.02a.782.782 0 000 1.561h3.96a.782.782 0 000-1.561h.003z" fill="#3A4155"/><path d="M39.217 17.202a.78.78 0 00.774-.891 9.712 9.712 0 00-5.845-7.577c1.1-.285.173.037 2.296-.983a.78.78 0 00.139-1.309l-1.022-.824a11.335 11.335 0 00-4.819-2.243c.329-.203.655-.396 1.015-.574a.78.78 0 00.138-1.309A8.037 8.037 0 0026.356.047a10.77 10.77 0 00-6.358 2.804c-4.235-3.753-9.549-3.3-11.89-1.43a.78.78 0 00.14 1.309c.37.19.729.4 1.074.633a11.336 11.336 0 00-4.875 2.255l-1.028.82a.78.78 0 00.303 1.37l2.758.69A9.718 9.718 0 00.013 16.31a.78.78 0 00.454.817.775.775 0 00.323.066h1.242a7.67 7.67 0 00-2.027 5.473.774.774 0 00.78.773h1.622a7.523 7.523 0 00-.816 5.663.78.78 0 001.107.51l1.795-.898a7.849 7.849 0 001.917 5.352.782.782 0 001.136.122l3.292-2.84a2.097 2.097 0 001.683.241 10.07 10.07 0 002.013 2.556v5.075a.78.78 0 00.781.78h9.374a.781.781 0 00.78-.78v-5.075a10.072 10.072 0 002.014-2.558 2.13 2.13 0 001.683-.242l3.293 2.843a.782.782 0 001.137-.122 7.863 7.863 0 001.917-5.352l1.795.898a.78.78 0 001.107-.51 7.504 7.504 0 00-.816-5.654h1.62a.781.781 0 00.781-.78v-.32a7.6 7.6 0 00-2.026-5.14h1.245l-.002-.006zm-28.062 2.094a7.374 7.374 0 014.269-7.682 7.384 7.384 0 013.045-.659h3.065a7.384 7.384 0 017.06 5.237 7.374 7.374 0 01.254 3.104 6.812 6.812 0 00-.052.56h-.408a3.902 3.902 0 00-5.165-2.372c-.66.267-1.235.71-1.66 1.28h-3.125a3.905 3.905 0 00-6.95 1.561h-.271a6.824 6.824 0 00-.062-1.029zm17.915 5.691l-.486.486a6.11 6.11 0 00-1.559-1.244 3.904 3.904 0 001.555-2.816h.323c.1.522.271 1.027.508 1.503a1.786 1.786 0 01-.337 2.07l-.004.001zm-11.412-3.881a2.341 2.341 0 01-2.8 2.297 2.343 2.343 0 112.8-2.297zm1.347 3.298a1.125 1.125 0 01-.105-.298l-.208-1.039a3.886 3.886 0 00.449-2.752h1.722c-.053.26-.08.525-.08.79-.001.69.181 1.367.53 1.962l-.208 1.039a1.121 1.121 0 01-2.1.298zm5.496-.964a2.343 2.343 0 11.375-4.671 2.343 2.343 0 01-.375 4.671zm-13.907-.52c.166-.33.3-.677.399-1.034h.496a3.91 3.91 0 001.486 2.342 6.107 6.107 0 00-1.559 1.244l-.486-.486a1.786 1.786 0 01-.336-2.065zm5.503 15.515v-3.13a7.477 7.477 0 007.811 0v3.13h-7.811zm3.905-3.591a7.347 7.347 0 01-6.124-4.037l.991-.66a2.454 2.454 0 003.48.803l1.221-.81a.777.777 0 01.866 0l1.22.813a2.456 2.456 0 003.48-.804l.992.66A7.341 7.341 0 0120 34.848l.001-.003zm7.745-4.832l-2.625-1.748a.78.78 0 00-1.216.654.89.89 0 01-1.386.741l-1.215-.812a2.338 2.338 0 00-2.6 0l-1.22.813a.891.891 0 01-1.385-.74.78.78 0 00-1.216-.655c-2.856 1.903-2.712 1.843-2.923 1.843a.546.546 0 01-.549-.548 4.55 4.55 0 014.208-4.537 4.66 4.66 0 012.15.357 2.683 2.683 0 004.463 0 4.667 4.667 0 012.151-.357 4.555 4.555 0 014.214 4.538.543.543 0 01-.85.45zm10.67-8.132h-2.325a.78.78 0 00-.626 1.255l.411.548a5.951 5.951 0 011.179 4.06l-2.179-1.09a.782.782 0 00-1.107.888 5.952 5.952 0 01-.93 4.918l-2.753-2.376c.043-.171.065-.347.065-.523a6.082 6.082 0 00-.671-2.775l.692-.691a3.345 3.345 0 00.628-3.868 4.391 4.391 0 01-.436-1.552v-.033a.782.782 0 00-.016-.157 5.171 5.171 0 01.036-.979 8.936 8.936 0 00-5.163-9.31 8.945 8.945 0 00-3.688-.801h-3.057A8.945 8.945 0 009.92 15.74a8.934 8.934 0 00-.307 3.762 4.677 4.677 0 01-.421 2.72 3.345 3.345 0 00.628 3.869l.69.69a6.09 6.09 0 00-.668 2.778c0 .176.023.352.066.523L7.16 32.459a5.953 5.953 0 01-.93-4.919.78.78 0 00-1.107-.887L2.945 27.74a6.382 6.382 0 011.59-4.606.78.78 0 00-.626-1.249H1.585c.231-2.935 2.325-4.214 2.878-4.913a.78.78 0 00-.552-1.333H1.737a8.1 8.1 0 015.317-5.69l1.79-.594a.78.78 0 00.103-1.439 8.575 8.575 0 00-3.309-1.24 9.775 9.775 0 015.871-1.969h.216a.781.781 0 00.35-1.478 13.63 13.63 0 01-1.477-.9 28.21 28.21 0 00-.427-.28 8.87 8.87 0 019.283 2.43.781.781 0 001.104 0 9.368 9.368 0 015.925-2.875 7.411 7.411 0 013.366.487c-.142.088-.282.176-.42.264a16.79 16.79 0 01-1.496.875.78.78 0 00.35 1.478h.216c2.237.026 4.402.796 6.153 2.19l-.394.197-3.042.76a.78.78 0 00-.058 1.495l1.79.596a8.104 8.104 0 015.323 5.693h-2.178a.78.78 0 00-.552 1.333l1.14 1.142a6.03 6.03 0 011.737 3.771v-.006z" fill="#17181F"/><path d="M16.875 14.077h6.249a.782.782 0 000-1.561h-6.249a.782.782 0 000 1.561z" fill="#3A4155"/></svg>