<svg width="16" height="16" viewBox="0 0 16 16" fill="none" xmlns="http://www.w3.org/2000/svg">
<path d="M7.99929 0.726562C6.56088 0.726563 5.15478 1.1531 3.95878 1.95224C2.76279 2.75138 1.83062 3.88722 1.28017 5.21614C0.729714 6.54505 0.585689 8.00736 0.866309 9.41813C1.14693 10.8289 1.83959 12.1248 2.8567 13.1419C3.87381 14.159 5.16968 14.8517 6.58045 15.1323C7.99122 15.4129 9.45353 15.2689 10.7824 14.7184C12.1114 14.168 13.2472 13.2358 14.0463 12.0398C14.8455 10.8438 15.272 9.4377 15.272 7.99929C15.2699 6.07108 14.503 4.22245 13.1396 2.859C11.7761 1.49555 9.9275 0.728648 7.99929 0.726562ZM7.99929 12.8478C7.87942 12.8478 7.76225 12.8122 7.66258 12.7456C7.56292 12.679 7.48524 12.5844 7.43936 12.4736C7.39349 12.3629 7.38149 12.241 7.40488 12.1235C7.42826 12.0059 7.48598 11.8979 7.57074 11.8132C7.6555 11.7284 7.76349 11.6707 7.88106 11.6473C7.99862 11.6239 8.12048 11.6359 8.23122 11.6818C8.34196 11.7277 8.43662 11.8053 8.50321 11.905C8.56981 12.0047 8.60535 12.1218 8.60535 12.2417C8.60535 12.4024 8.5415 12.5566 8.42784 12.6703C8.31418 12.7839 8.16003 12.8478 7.99929 12.8478ZM9.16899 8.30595C8.99014 8.41778 8.84388 8.57473 8.74494 8.76102C8.646 8.94731 8.59786 9.15637 8.60535 9.36717V9.81747C8.60535 9.97821 8.5415 10.1324 8.42784 10.246C8.31418 10.3597 8.16003 10.4235 7.99929 10.4235C7.83855 10.4235 7.6844 10.3597 7.57074 10.246C7.45708 10.1324 7.39323 9.97821 7.39323 9.81747V9.36717C7.38428 8.93954 7.48994 8.51732 7.69925 8.14431C7.90856 7.77131 8.21388 7.46113 8.58353 7.24596C8.80746 7.12262 8.98666 6.93165 9.09551 6.70034C9.20436 6.46903 9.23729 6.20923 9.18959 5.95808C9.14237 5.71881 9.02489 5.49904 8.85217 5.32686C8.67945 5.15467 8.45932 5.03789 8.2199 4.99141C8.04518 4.95907 7.8655 4.96554 7.69356 5.01036C7.52162 5.05517 7.36164 5.13724 7.22494 5.25075C7.08824 5.36426 6.97817 5.50644 6.90252 5.66721C6.82687 5.82799 6.78749 6.00343 6.78717 6.18111C6.78717 6.34184 6.72332 6.496 6.60966 6.60966C6.496 6.72331 6.34185 6.78717 6.18111 6.78717C6.02037 6.78717 5.86622 6.72331 5.75256 6.60966C5.6389 6.496 5.57505 6.34184 5.57505 6.18111C5.5752 5.75354 5.68844 5.33361 5.90326 4.96393C6.11809 4.59424 6.42688 4.28795 6.79829 4.07613C7.1697 3.8643 7.59053 3.75448 8.01809 3.7578C8.44565 3.76111 8.86473 3.87745 9.23281 4.09501C9.60089 4.31257 9.90489 4.62361 10.114 4.99658C10.323 5.36955 10.4297 5.79119 10.4233 6.21871C10.4168 6.64623 10.2973 7.06444 10.0771 7.4309C9.85678 7.79736 9.5435 8.09965 9.16899 8.30595Z" fill="#181C27"/>
</svg>
