<?xml version="1.0" encoding="UTF-8"?>
<svg xmlns="http://www.w3.org/2000/svg" xmlns:xlink="http://www.w3.org/1999/xlink" width="0" height="0">
<symbol id="rating-active" width="175" height="64" viewBox="0 0 175 64" fill="none">
<g filter="url(#filter0_d_1747_39904)">
<path d="M0 12C0 5.37258 5.37258 0 12 0H162.799C172.338 0 178.064 10.5929 172.838 18.5737L149.266 54.5737C147.048 57.9597 143.274 60 139.226 60H12C5.37258 60 0 54.6274 0 48V12Z" fill="#2B69FF"/>
<path d="M1 12C1 5.92487 5.92487 1 12 1H162.799C171.543 1 176.792 10.7101 172.001 18.0259L148.429 54.0258C146.396 57.1297 142.936 59 139.226 59H12C5.92487 59 1 54.0751 1 48V12Z" stroke="url(#paint0_linear_1747_39904)" stroke-width="2"/>
</g>
<defs>
<!-- <filter id="filter0_d_1747_39904" x="0" y="0" width="174.82" height="64" filterUnits="userSpaceOnUse" color-interpolation-filters="sRGB">
<feFlood flood-opacity="0" result="BackgroundImageFix"/>
<feColorMatrix in="SourceAlpha" type="matrix" values="0 0 0 0 0 0 0 0 0 0 0 0 0 0 0 0 0 0 127 0" result="hardAlpha"/>
<feOffset dy="4"/>
<feComposite in2="hardAlpha" operator="out"/>
<feColorMatrix type="matrix" values="0 0 0 0 0.130786 0 0 0 0 0.325525 0 0 0 0 0.796667 0 0 0 1 0"/>
<feBlend mode="normal" in2="BackgroundImageFix" result="effect1_dropShadow_1747_39904"/>
<feBlend mode="normal" in="SourceGraphic" in2="effect1_dropShadow_1747_39904" result="shape"/>
</filter> -->
<linearGradient id="paint0_linear_1747_39904" x1="108.687" y1="151.8" x2="108.687" y2="-63.6" gradientUnits="userSpaceOnUse">
<stop offset="0.0388586" stop-color="#53557A"/>
<stop offset="0.451042" stop-color="#8891DD" />
<stop offset="0.771784" stop-color="#B5B8F7"/>
</linearGradient>
</defs>
</symbol>

<symbol id="rating-desktop" width="175" height="64" viewBox="0 0 175 64" fill="none">
<g filter="url(#filter0_d_1747_39900)">
<path d="M0 12C0 5.37258 5.37258 0 12 0H162.799C172.338 0 178.064 10.5929 172.838 18.5737L149.266 54.5737C147.048 57.9597 143.274 60 139.226 60H12C5.37258 60 0 54.6274 0 48V12Z" fill="#DEE5EE"/>
<path d="M1 12C1 5.92487 5.92487 1 12 1H162.799C171.543 1 176.792 10.7101 172.001 18.0259L148.429 54.0258C146.396 57.1297 142.936 59 139.226 59H12C5.92487 59 1 54.0751 1 48V12Z" stroke="url(#paint0_linear_1747_39900)" stroke-width="2"/>
</g>
<defs>
<!-- <filter id="filter0_d_1747_39900" x="0" y="0" width="174.82" height="64" filterUnits="userSpaceOnUse" color-interpolation-filters="sRGB">
<feFlood flood-opacity="0" result="BackgroundImageFix"/>
<feColorMatrix in="SourceAlpha" type="matrix" values="0 0 0 0 0 0 0 0 0 0 0 0 0 0 0 0 0 0 127 0" result="hardAlpha"/>
<feOffset dy="4"/>
<feComposite in2="hardAlpha" operator="out"/>
<feColorMatrix type="matrix" values="0 0 0 0 0.641585 0 0 0 0 0.752635 0 0 0 0 0.821667 0 0 0 1 0"/>
<feBlend mode="normal" in2="BackgroundImageFix" result="effect1_dropShadow_1747_39900"/>
<feBlend mode="normal" in="SourceGraphic" in2="effect1_dropShadow_1747_39900" result="shape"/>
</filter> -->
<linearGradient id="paint0_linear_1747_39900" x1="185" y1="88.4211" x2="176.783" y2="-67.1956" gradientUnits="userSpaceOnUse">
<stop stop-color="#D6E0E6"/>
<stop offset="0.445833" stop-color="#D6E1E8" />
<stop offset="0.771784" stop-color="#F4FBFF"/>
</linearGradient>
</defs>
</symbol>

</svg>
